<svg width="132" height="25" viewBox="0 0 132 25" fill="none" xmlns="http://www.w3.org/2000/svg">
<path d="M13.483 2.36595L11.129 0L8.76094 2.38014L11.1184 4.74608L13.4865 2.36595H13.483ZM22.2404 4.95182L19.9004 2.54685L13.2973 9.02749C12.0958 10.2051 10.1446 10.2051 8.9466 9.02749L2.33999 2.5433L0 4.95182V24H3.33483V8.22229L6.60311 11.4289C7.84667 12.6527 9.48606 13.2628 11.122 13.2628C12.7578 13.2628 14.3937 12.6527 15.6408 11.4289L18.846 8.28259V23.9965H22.2439V4.95182H22.2404Z" fill="url(#paint0_linear_1120_11214)"/>
<path fill-rule="evenodd" clip-rule="evenodd" d="M36.2927 20.1951V3.80487H36.795V20.1951H36.2927Z" fill="white"/>
<path d="M58.8553 24.399C52.6715 24.399 47.8546 20.0052 47.8546 12.9101C47.8546 6.04284 52.4762 1.38871 58.8878 1.38871C64.258 1.38871 67.6753 4.64335 68.6517 8.38618L65.3971 9.26493C64.5183 6.69376 62.3703 4.51316 58.8227 4.51316C54.8195 4.51316 51.3045 7.31215 51.3045 12.8125C51.3045 18.0524 54.5266 21.242 58.7902 21.242C62.4028 21.242 64.4858 18.9963 65.4296 16.2949L68.6192 17.1737C67.6102 21.0467 64.258 24.399 58.8553 24.399Z" fill="white"/>
<path d="M71.8756 24.041V1.42126H75.1628V10.4691H75.3255C76.1066 8.64655 77.8316 7.37724 80.5004 7.37724C84.0805 7.37724 86.4238 9.65548 86.4238 13.5285V24.041H83.1366V14.2771C83.1366 12.2592 82.2253 10.2088 79.4263 10.2088C76.8877 10.2088 75.1628 12.0639 75.1628 15.1884V24.041H71.8756Z" fill="white"/>
<path d="M95.5998 24.4641C92.3452 24.4641 89.9693 22.5438 89.9693 19.4194C89.9693 16.1322 92.573 14.8304 95.8277 14.6025L99.4078 14.3747C100.417 14.3096 100.97 14.0167 100.97 12.8776C100.97 11.1201 99.5054 10.0135 97.3574 10.0135C95.0791 10.0135 93.9074 11.1852 93.5169 12.6172L90.3924 12.2266C90.7504 9.55784 93.2891 7.34469 97.3574 7.34469C101.491 7.34469 104.322 9.5253 104.322 13.1054V24.041H100.97V21.3722H100.807C100.287 22.9669 98.3988 24.4641 95.5998 24.4641ZM93.3541 19.3543C93.3541 20.884 94.5584 21.8929 96.4135 21.8929C98.9196 21.8929 100.937 20.0378 100.937 17.2713V16.36C100.775 16.4577 100.417 16.5553 99.7983 16.6204L96.5111 16.8808C94.7862 17.011 93.3541 17.6619 93.3541 19.3543Z" fill="white"/>
<path d="M108.456 24.041V7.7678H111.678V24.041H108.456ZM107.935 3.2764C107.935 2.10473 108.879 1.16089 110.083 1.16089C111.288 1.16089 112.232 2.10473 112.232 3.2764C112.232 4.48062 111.288 5.42446 110.083 5.42446C108.879 5.42446 107.935 4.48062 107.935 3.2764Z" fill="white"/>
<path d="M116.436 24.041V7.7678H119.723V10.404H119.886C120.667 8.64655 122.49 7.37724 125.061 7.37724C128.543 7.37724 130.984 9.65548 130.984 13.5285V24.041H127.697V14.3096C127.697 12.2592 126.721 10.2413 123.987 10.2413C121.513 10.2413 119.723 12.0965 119.723 15.1884V24.041H116.436Z" fill="white"/>
<defs>
<linearGradient id="paint0_linear_1120_11214" x1="17.1628" y1="1.84469" x2="-1.44475" y2="6.71205" gradientUnits="userSpaceOnUse">
<stop offset="0.372396" stop-color="#FF97D6"/>
<stop offset="0.802083" stop-color="#F8B994"/>
</linearGradient>
</defs>
</svg>
