<svg width="500" height="500" viewBox="0 0 500 500" fill="none" xmlns="http://www.w3.org/2000/svg">
<path d="M152.395 362.823L110.593 111.61C108.954 101.763 121.17 95.8571 127.87 103.257L236.781 223.535C244.958 232.565 232.944 245.597 223.28 238.18L198.088 218.847C191.51 213.799 182 218.488 182 226.78V290.213C182 300.086 194.788 303.986 200.298 295.794L220 266.5L171.232 365.597C166.941 374.316 153.99 372.409 152.395 362.823Z" fill="black"/>
<path d="M318.267 152.892L383.815 381.918C386.69 391.966 374.169 399.134 366.961 391.568L250.731 269.565C242.233 260.644 254.243 247.243 264.038 254.717L290.934 275.24C297.515 280.263 307 275.569 307 267.29V192.91C307 182.782 293.674 179.071 288.439 187.741L259 236.5L299.628 151.338C303.593 143.027 315.733 144.039 318.267 152.892Z" fill="black"/>
<circle cx="244" cy="246" r="12" fill="black"/>
<circle cx="259" cy="242" r="2" fill="black"/>
<circle cx="246" cy="227" r="4" fill="black"/>
<circle cx="227" cy="251" r="2" fill="black"/>
<ellipse cx="258.73" cy="215.767" rx="1" ry="23.5" transform="rotate(24.7044 258.73 215.767)" fill="black"/>
<ellipse cx="229.46" cy="273.44" rx="1" ry="23.5" transform="rotate(26.7214 229.46 273.44)" fill="black"/>
</svg>
