<svg width="3000" height="3000" viewBox="0 0 3000 3000" fill="none" xmlns="http://www.w3.org/2000/svg">
    <g clip-path="url(#clip0_660_593)">
        <path d="M1095.56 2095.38L1068.86 2110.77L1068.88 2079.95C1068.88 2079.95 1068.5 2095.71 1075.62 2099.65C1082.59 2103.51 1095.56 2095.38 1095.56 2095.38Z"
              fill="#8E3315"/>
        <path d="M410.192 2063.58C560.719 2348.24 818.169 2561.4 1125.9 2656.24C1433.64 2751.07 1766.45 2719.78 2051.13 2569.24C2335.81 2418.71 2549.03 2161.25 2643.89 1853.52C2738.74 1545.8 2706.82 1212.99 2556.29 928.33C2692.03 1356.12 2219.46 1506.41 2219.46 1506.41L1647.5 1805.34L1053.08 2115.37C1053.08 2115.37 647.949 2376.17 410.192 2063.58Z"
              fill="#473ADE"/>
        <path d="M408.065 2065.67C558.593 2350.33 816.042 2563.53 1123.78 2658.36C1431.51 2753.2 1764.33 2721.91 2049 2571.37C2333.68 2420.83 2546.9 2163.38 2641.76 1855.65C2736.62 1547.92 2705.34 1215.12 2554.82 930.465C2690.55 1358.26 2217.33 1508.54 2217.33 1508.54L1645.38 1807.47L1050.95 2117.5C1050.95 2117.5 645.822 2378.26 408.065 2065.67Z"
              fill="url(#paint0_linear_660_593)"/>
        <path d="M2204.24 1476.73L2248.39 1498.2L2201.78 1516.9C2201.78 1516.9 2221.78 1507.46 2224.17 1498.2C2226.51 1489.13 2204.24 1476.73 2204.24 1476.73Z"
              fill="#251E73"/>
        <path d="M2563.65 2050.88C2710.64 1764.39 2737.8 1431.22 2639.14 1124.69C2540.48 818.161 2324.09 563.367 2037.57 416.364C1751.05 269.36 1417.88 242.188 1111.34 340.826C804.8 439.463 550.008 655.83 403.015 942.329C675.78 585.916 1070.15 887.57 1070.15 887.57L1642.91 1184.94L2237.66 1494.36C2237.66 1494.36 2683.54 1676.9 2563.65 2050.88Z"
              fill="#D71D6A"/>
        <path d="M2560.74 2049.71C2707.29 1764.06 2734.37 1431.89 2636 1126.27C2537.64 820.655 2321.89 566.621 2036.23 420.055C1750.56 273.489 1418.38 246.398 1112.75 344.742C807.127 443.086 553.094 658.808 406.538 944.453C678.491 589.102 1071.68 889.857 1071.68 889.857L1642.74 1186.34L2235.72 1494.84C2235.72 1494.84 2680.27 1676.83 2560.74 2049.71Z"
              fill="url(#paint1_linear_660_593)"/>
        <path d="M1069.04 916.346L1068.54 884.067L1096.75 899.774C1096.75 899.774 1082.51 891.41 1075.28 895.917C1068.2 900.331 1069.04 916.346 1069.04 916.346Z"
              fill="#741039"/>
        <path d="M1483.42 282.195C1161.41 282.195 852.595 410.12 624.902 637.829C397.209 865.537 269.292 1174.38 269.292 1496.41C269.292 1818.43 397.209 2127.27 624.902 2354.98C852.595 2582.69 1161.41 2710.62 1483.42 2710.62C1070.15 2641.23 1070.15 2105.8 1070.15 2105.8L1070.15 1496.4L1070.15 876.227C1070.15 876.227 1070.15 356.165 1483.42 282.195Z"
              fill="#FF5B25"/>
        <path d="M1483.42 279.359C1161.41 279.359 852.595 407.284 624.902 634.993C397.209 862.701 269.292 1171.54 269.292 1493.57C269.292 1815.6 397.209 2124.44 624.902 2352.15C852.595 2579.85 1161.41 2707.78 1483.42 2707.78C1070.15 2575.74 1070.15 2106.47 1070.15 2106.47V1495.07V887.569C1070.15 887.569 1055.11 358.043 1483.42 279.359Z"
              fill="url(#paint2_linear_660_593)"/>
        <path d="M1483.42 279.359C1161.41 279.359 852.595 407.284 624.902 634.993C397.209 862.701 269.292 1171.54 269.292 1493.57C269.292 1815.6 397.209 2124.44 624.902 2352.15C852.595 2579.85 1161.41 2707.78 1483.42 2707.78C1070.15 2575.74 1070.15 2106.47 1070.15 2106.47V1495.07V887.569C1070.15 887.569 1055.11 358.043 1483.42 279.359Z"
              fill="url(#paint3_linear_660_593)" fill-opacity="0.3"/>
        <path d="M1480.23 2710.07C1070.15 2523.29 1070.63 2106.28 1070.63 2106.28C1070.63 2106.28 562.362 2393 391.251 2026.29C391.251 2026.29 678.093 2712.5 1480.23 2710.07Z"
              fill="#473ADE"/>
    </g>
    <defs>
        <linearGradient id="paint0_linear_660_593" x1="2554.91" y1="1357.97" x2="788.312" y2="3102.19"
                        gradientUnits="userSpaceOnUse">
            <stop stop-opacity="0.6"/>
            <stop offset="0.655513" stop-opacity="0"/>
        </linearGradient>
        <linearGradient id="paint1_linear_660_593" x1="755.763" y1="700.093" x2="3190.31" y2="1146.74"
                        gradientUnits="userSpaceOnUse">
            <stop stop-opacity="0.6"/>
            <stop offset="0.645833" stop-opacity="0"/>
        </linearGradient>
        <linearGradient id="paint2_linear_660_593" x1="919.493" y1="2557.37" x2="197.217" y2="332.685"
                        gradientUnits="userSpaceOnUse">
            <stop stop-opacity="0.6"/>
            <stop offset="0.675464" stop-opacity="0"/>
        </linearGradient>
        <linearGradient id="paint3_linear_660_593" x1="919.493" y1="2557.37" x2="197.217" y2="332.685"
                        gradientUnits="userSpaceOnUse">
            <stop stop-opacity="0.6"/>
            <stop offset="0.675464" stop-opacity="0"/>
        </linearGradient>
        <clipPath id="clip0_660_593">
            <rect width="3000" height="3000" fill="white"/>
        </clipPath>
    </defs>
</svg>
